# Blender 4.1.0
# www.blender.org
mtllib screen.mtl
o RetroTV.001
v 167.934006 457.997986 -113.713036
v 169.220993 446.393005 -68.042732
v 168.110992 486.752991 -121.370041
v 169.220993 446.393005 184.411972
v 167.934006 457.998016 230.082962
v 168.110992 486.753021 237.739975
v 168.819000 535.841980 -127.636040
v 169.253998 584.929993 -128.875046
v 168.819000 535.841980 244.005951
v 169.253998 584.931030 245.244949
v 175.240005 535.841980 194.635956
v 176.667999 584.931030 195.545959
v 176.667999 584.929993 -79.176346
v 175.240005 535.841980 -78.266235
v 172.033997 486.919006 -73.665237
v 172.033997 486.919006 190.034973
v 173.132996 440.925995 121.298973
v 175.324005 440.378998 58.184864
v 173.132996 440.925995 -4.928933
v 188.300003 535.841980 121.298965
v 180.207993 483.372009 121.298965
v 193.649994 535.841980 58.184856
v 183.934998 483.372009 58.184860
v 188.300003 535.841980 -4.928950
v 180.207993 483.372009 -4.928946
v 191.403000 584.931030 121.298958
v 194.936005 584.931030 58.184853
v 191.403000 584.931030 -4.928964
v 169.220993 723.468018 -68.042755
v 167.934006 711.862976 -113.713051
v 168.110992 683.107971 -121.370056
v 167.934006 711.862976 230.082932
v 169.220993 723.468018 184.411942
v 168.110992 683.107971 237.739960
v 168.819000 634.018982 -127.636047
v 168.819000 634.018982 244.005951
v 175.240005 634.018982 194.635956
v 175.240005 634.018982 -78.266243
v 172.033997 682.942017 -73.665253
v 172.033997 682.942017 190.034958
v 173.132996 728.934998 121.298950
v 175.324005 729.481995 58.184746
v 173.132996 728.934998 -4.928995
v 188.300003 634.018982 121.298958
v 180.207993 686.489014 121.298950
v 193.649994 634.018982 58.184849
v 183.934998 686.489014 58.184746
v 188.300003 634.018982 -4.928977
v 180.207993 686.489014 -4.928992
vn 0.9878 -0.0584 0.1443
vn 0.9869 -0.0000 0.1615
vn 0.9326 -0.0000 -0.3609
vn 0.9253 0.0150 -0.3790
vn 0.9253 0.0149 0.3790
vn 0.9326 -0.0000 0.3609
vn 0.9869 -0.0000 -0.1615
vn 0.9878 -0.0584 -0.1442
vn 0.9253 0.0150 0.3790
vn 0.9169 0.0473 0.3962
vn 0.9878 -0.0584 -0.1443
vn 0.9908 -0.0862 -0.1045
vn 0.9169 0.0472 0.3962
vn 0.9908 -0.0862 0.1045
vn 0.9169 0.0472 -0.3963
vn 0.8946 0.3139 -0.3180
vn 0.9273 0.3740 -0.0160
vn 0.9169 0.0473 -0.3962
vn 0.9273 0.3740 0.0160
vn 0.8946 0.3139 0.3180
vn 0.9884 -0.0939 0.1191
vn 0.9908 -0.0862 0.1046
vn 0.9849 -0.1472 0.0913
vn 0.9944 -0.1058 -0.0000
vn 0.9848 -0.1739 -0.0000
vn 0.9884 -0.0940 -0.1191
vn 0.9849 -0.1472 -0.0913
vn 0.9884 -0.0939 -0.1191
vn 0.9849 -0.1472 -0.0914
vn 0.9501 0.3108 0.0262
vn 0.9849 -0.1472 0.0914
vn 0.9639 0.2661 -0.0000
vn 0.9499 0.3108 -0.0316
vn 0.9501 0.3108 -0.0263
vn 0.9501 0.3108 -0.0262
vn 0.9918 -0.0000 0.1275
vn 1.0000 -0.0000 -0.0000
vn 0.9884 -0.0939 0.1190
vn 0.9918 -0.0000 -0.1275
vn 0.9884 -0.0939 -0.1190
vn 0.9878 0.0584 0.1443
vn 0.9253 -0.0150 -0.3790
vn 0.9253 -0.0150 0.3790
vn 0.9878 0.0584 -0.1442
vn 0.9878 0.0584 -0.1443
vn 0.9169 -0.0472 0.3962
vn 0.9908 0.0862 -0.1045
vn 0.9253 -0.0149 -0.3790
vn 0.9908 0.0862 0.1045
vn 0.9169 -0.0472 -0.3962
vn 0.9273 -0.3740 -0.0160
vn 0.8946 -0.3139 -0.3181
vn 0.8946 -0.3139 -0.3180
vn 0.9169 -0.0473 0.3962
vn 0.8946 -0.3139 0.3180
vn 0.9273 -0.3740 0.0160
vn 0.9273 -0.3740 0.0159
vn 0.9908 0.0862 0.1046
vn 0.9884 0.0939 0.1191
vn 0.9849 0.1472 0.0913
vn 0.9944 0.1058 -0.0000
vn 0.9848 0.1739 -0.0000
vn 0.9884 0.0939 -0.1190
vn 0.9884 0.0939 -0.1191
vn 0.9849 0.1472 -0.0913
vn 0.9849 0.1472 -0.0914
vn 0.9501 -0.3108 0.0262
vn 0.9273 -0.3740 -0.0159
vn 0.9639 -0.2661 -0.0000
vn 0.9501 -0.3108 -0.0262
vn 0.9501 -0.3108 -0.0263
vn 0.9884 0.0939 0.1190
vt 0.865386 0.332110
vt 0.867054 0.497372
vt 1.001456 0.497891
vt 0.998519 0.332141
vt 0.005280 0.329111
vt 0.001632 0.494023
vt 0.135305 0.494540
vt 0.137804 0.329904
vt 0.022320 0.164345
vt 0.149756 0.165464
vt 0.854021 0.166734
vt 0.982147 0.166342
vt 0.961827 0.069203
vt 0.839520 0.029530
vt 0.164461 0.029113
vt 0.042783 0.067860
vt 0.667578 0.333305
vt 0.669146 0.155809
vt 0.501145 0.333860
vt 0.501181 0.156723
vt 0.334908 0.332255
vt 0.333648 0.155490
vt 0.670081 0.010989
vt 0.501163 0.009683
vt 0.332777 0.011305
vt 0.666759 0.496598
vt 0.501035 0.495957
vt 0.335370 0.495317
vt 0.864582 0.662613
vt 0.997713 0.663612
vt 0.004478 0.658964
vt 0.137003 0.659195
vt 0.020716 0.823858
vt 0.148155 0.823724
vt 0.852413 0.827899
vt 0.980534 0.829281
vt 0.837245 0.964987
vt 0.959742 0.926261
vt 0.040710 0.920500
vt 0.162197 0.960186
vt 0.666784 0.659889
vt 0.667489 0.837395
vt 0.500357 0.658047
vt 0.499531 0.835182
vt 0.334115 0.658368
vt 0.331995 0.835120
vt 0.667719 0.982219
vt 0.498797 0.982219
vt 0.330423 0.979295
s 0
usemtl DefaultMaterial
f 11/1/1 12/2/2 10/3/3
f 10/3/3 9/4/4 11/1/1
f 7/5/5 8/6/6 13/7/7
f 13/7/7 14/8/8 7/5/9
f 3/9/10 7/5/9 14/8/11
f 14/8/11 15/10/12 3/9/13
f 16/11/14 11/1/1 9/4/4
f 9/4/4 6/12/15 16/11/14
f 5/13/16 4/14/17 16/11/14
f 16/11/14 6/12/18 5/13/16
f 2/15/19 1/16/20 3/9/10
f 3/9/13 15/10/12 2/15/19
f 20/17/21 11/1/1 16/11/22
f 16/11/14 21/18/23 20/17/21
f 22/19/24 20/17/21 21/18/23
f 21/18/23 23/20/25 22/19/24
f 24/21/26 22/19/24 23/20/25
f 23/20/25 25/22/27 24/21/28
f 14/8/11 24/21/28 25/22/29
f 25/22/27 15/10/12 14/8/11
f 21/18/23 16/11/14 4/14/17
f 4/14/17 17/23/30 21/18/23
f 23/20/25 21/18/31 17/23/30
f 17/23/30 18/24/32 23/20/25
f 25/22/27 23/20/25 18/24/32
f 18/24/32 19/25/33 25/22/27
f 15/10/12 25/22/27 19/25/34
f 19/25/35 2/15/19 15/10/12
f 26/26/36 12/2/2 11/1/1
f 11/1/1 20/17/21 26/26/36
f 27/27/37 26/26/36 20/17/21
f 20/17/38 22/19/24 27/27/37
f 28/28/39 27/27/37 22/19/24
f 22/19/24 24/21/40 28/28/39
f 13/7/7 28/28/39 24/21/28
f 24/21/28 14/8/11 13/7/7
f 10/3/3 12/2/2 37/29/41
f 37/29/41 36/30/42 10/3/3
f 13/7/7 8/6/6 35/31/43
f 35/31/43 38/32/44 13/7/7
f 38/32/45 35/31/43 31/33/46
f 31/33/46 39/34/47 38/32/45
f 36/30/48 37/29/41 40/35/49
f 40/35/49 34/36/50 36/30/42
f 40/35/49 33/37/51 32/38/52
f 32/38/53 34/36/50 40/35/49
f 31/33/54 30/39/55 29/40/56
f 29/40/57 39/34/47 31/33/46
f 40/35/58 37/29/41 44/41/59
f 44/41/59 45/42/60 40/35/49
f 45/42/60 44/41/59 46/43/61
f 46/43/61 47/44/62 45/42/60
f 47/44/62 46/43/61 48/45/63
f 48/45/64 49/46/65 47/44/62
f 49/46/66 48/45/64 38/32/45
f 38/32/45 39/34/47 49/46/65
f 33/37/51 40/35/49 45/42/60
f 45/42/60 41/47/67 33/37/68
f 41/47/67 45/42/60 47/44/62
f 47/44/62 42/48/69 41/47/67
f 42/48/69 47/44/62 49/46/65
f 49/46/65 43/49/70 42/48/69
f 43/49/71 49/46/65 39/34/47
f 39/34/47 29/40/56 43/49/70
f 37/29/41 12/2/2 26/26/36
f 26/26/36 44/41/59 37/29/41
f 44/41/59 26/26/36 27/27/37
f 27/27/37 46/43/61 44/41/72
f 46/43/61 27/27/37 28/28/39
f 28/28/39 48/45/63 46/43/61
f 48/45/64 28/28/39 13/7/7
f 13/7/7 38/32/45 48/45/64
